<?xml version="1.0" encoding="UTF-8"?>
<svg version="1.1" xmlns="http://www.w3.org/2000/svg" width="1563" height="1563">
<path d="M0 0 C67.32 0 134.64 0 204 0 C204 17.82 204 35.64 204 54 C179.25 54 154.5 54 129 54 C129 105.81 129 157.62 129 211 C111.18 211 93.36 211 75 211 C75 159.19 75 107.38 75 54 C50.25 54 25.5 54 0 54 C0 36.18 0 18.36 0 0 Z " fill="#010101" transform="translate(930,676)"/>
<path d="M0 0 C61.38 0 122.76 0 186 0 C186 17.82 186 35.64 186 54 C142.44 54 98.88 54 54 54 C54 105.81 54 157.62 54 211 C36.18 211 18.36 211 0 211 C0 141.37 0 71.74 0 0 Z " fill="#020202" transform="translate(725,676)"/>
<path d="M0 0 C9.42317522 -0.30285551 18.8446464 -0.53299845 28.27164745 -0.67355824 C32.65055345 -0.74106685 37.02610257 -0.83240536 41.40307617 -0.98071289 C45.63742116 -1.12326936 49.86856601 -1.19994909 54.10512733 -1.23340416 C55.7109343 -1.25720109 57.31658969 -1.30367651 58.92101097 -1.37449074 C66.00593769 -1.67440542 72.15464864 -1.8695881 77.84353638 2.83230591 C81.19105485 5.98415812 84.12215406 9.42250401 87 13 C88.23558313 14.40976602 89.47387961 15.81717817 90.71875 17.21875 C91.50378906 18.14107422 91.50378906 18.14107422 92.3046875 19.08203125 C95.83641049 23.07759804 99.70100436 26.76102009 103.5 30.5 C108.61007419 35.52934632 113.57362492 40.58068617 118.24414062 46.02148438 C121.49185716 49.68103593 125.01055661 53.07297957 128.5 56.5 C132.6008986 60.52753726 136.65936764 64.53636092 140.40234375 68.90234375 C144.69047544 73.88657684 149.38126688 78.45077294 154.0625 83.0625 C159.61640673 88.53430907 165.03118014 93.98683048 170 100 C168.57699727 104.48894056 166.36787784 106.97129024 163.01953125 110.23828125 C162.28291512 110.96497261 162.28291512 110.96497261 161.53141785 111.7063446 C159.96543073 113.24904417 158.38965541 114.78122723 156.8125 116.3125 C154.75264842 118.3255149 152.69719263 120.34293614 150.64453125 122.36328125 C149.89455368 123.10023727 149.89455368 123.10023727 149.12942505 123.8520813 C145.83813319 127.10817657 142.76903429 130.48334888 139.76831055 134.00463867 C135.24316668 139.11081026 130.24109232 143.79235682 125.3828125 148.578125 C120.98682142 152.93403106 116.76587999 157.34176936 112.73828125 162.0390625 C108.82397581 166.45475088 104.52439166 170.51182286 100.31640625 174.64453125 C97.01414872 177.91095958 93.79263152 181.18074757 90.78125 184.71875 C89.97097603 185.62908745 89.97097603 185.62908745 89.14433289 186.55781555 C87.9937678 187.86819613 86.85026697 189.18598451 85.75670815 190.54430199 C80.80755658 196.65011871 76.07267629 202.45607924 67.88486767 203.38232899 C64.08944106 203.54710683 60.33623476 203.43695437 56.54296875 203.26953125 C54.90252547 203.24522104 53.26198644 203.22674609 51.62141418 203.21379089 C47.34611763 203.1646375 43.07675568 203.03742314 38.80377197 202.89263916 C34.42663864 202.75856297 30.04852577 202.70005209 25.66992188 202.63476562 C17.11058629 202.49620767 8.55603534 202.27498613 0 202 C4.09432381 197.1974466 8.25189 192.48471105 12.5625 187.875 C13.46560913 186.90711548 13.46560913 186.90711548 14.38696289 185.91967773 C19.02150209 180.98032218 23.78136086 176.18198301 28.59814453 171.42114258 C31.90132326 168.14282648 34.99057653 164.77052244 37.99609375 161.22265625 C41.42574991 157.41861267 45.10423733 153.85586845 48.76342773 150.27368164 C51.77200936 147.30908884 54.65086465 144.29629503 57.40625 141.09375 C61.88801443 135.90170594 66.79326217 131.15831676 71.68359375 126.35546875 C75.76816321 122.3152165 79.6502025 118.18504143 83.39697266 113.83007812 C85.63980228 111.26957693 88.01391407 108.89038612 90.4375 106.5 C91.30246094 105.6440625 92.16742187 104.788125 93.05859375 103.90625 C93.69925781 103.2771875 94.33992187 102.648125 95 102 C93.54811406 98.64956603 91.7180341 96.49513804 89.11328125 93.953125 C88.33919922 93.19 87.56511719 92.426875 86.76757812 91.640625 C85.95740234 90.85171875 85.14722656 90.0628125 84.3125 89.25 C79.27133111 84.31976148 74.38582167 79.37037901 69.79370117 74.01855469 C66.37540524 70.17175044 62.6680619 66.60651724 59 63 C54.05042963 58.13347611 49.26669814 53.22953931 44.7421875 47.96484375 C41.65601949 44.48425517 38.31960733 41.25601331 35 38 C30.38353481 33.47197284 25.97433318 28.87349883 21.75488281 23.97314453 C18.1899662 19.96484513 14.28424189 16.28348388 10.4296875 12.55664062 C9.48609375 11.62948242 9.48609375 11.62948242 8.5234375 10.68359375 C7.96575684 10.14275146 7.40807617 9.60190918 6.83349609 9.04467773 C4.28579628 6.20353447 2.18250357 3.13024955 0 0 Z " fill="#010101" transform="translate(429,676)"/>
<path d="M0 0 C1.64332327 0.02055942 3.28671473 0.03619716 4.93013 0.04716492 C9.22109653 0.08883498 13.50785707 0.19656845 17.79718018 0.31890869 C22.18777575 0.43217295 26.57906254 0.48182931 30.97070312 0.53710938 C39.56180968 0.65449357 48.14951995 0.84179741 56.73828125 1.07421875 C55.7798337 2.19283131 54.821326 3.31139233 53.86279297 4.42993164 C53.0621492 5.36428795 53.0621492 5.36428795 52.24533081 6.31752014 C45.68669862 13.96261712 38.77205341 21.13427634 31.58642578 28.18920898 C27.68236118 32.04275266 24.00632 36.00828509 20.42626953 40.16357422 C17.8291052 43.10332083 15.04271345 45.83404246 12.23828125 48.57421875 C8.8288585 51.94137196 5.45391214 55.28209713 2.36328125 58.94921875 C-1.7364556 63.7943623 -6.31826981 68.17943651 -10.84521484 72.62060547 C-14.55561455 76.28123969 -17.99740299 80.00945774 -21.26171875 84.07421875 C-28.54655679 78.05630906 -35.38782753 71.53061599 -41.51171875 64.32421875 C-45.5847192 59.53129328 -50.12348546 55.19198932 -54.63964844 50.82128906 C-55.53345215 49.9448877 -55.53345215 49.9448877 -56.4453125 49.05078125 C-56.98728271 48.52564941 -57.52925293 48.00051758 -58.08764648 47.45947266 C-59.26171875 46.07421875 -59.26171875 46.07421875 -59.26171875 44.07421875 C-58.60171875 44.07421875 -57.94171875 44.07421875 -57.26171875 44.07421875 C-57.02090576 43.50670898 -56.78009277 42.93919922 -56.53198242 42.35449219 C-55.00546467 39.61421239 -53.17970908 37.78382584 -50.9375 35.58984375 C-50.07318359 34.73648438 -49.20886719 33.883125 -48.31835938 33.00390625 C-47.41279297 32.11960937 -46.50722656 31.2353125 -45.57421875 30.32421875 C-38.47878091 23.42255705 -38.47878091 23.42255705 -31.8046875 16.12109375 C-31.28206329 15.53111099 -30.75943909 14.94112823 -30.22097778 14.33326721 C-28.80430191 12.69982345 -27.44219733 11.01851079 -26.11633301 9.31053162 C-18.34573448 0.21772151 -11.53072011 -0.42772918 0 0 Z " fill="#020202" transform="translate(639.26171875,674.92578125)"/>
<path d="M0 0 C3.33578513 1.45155894 5.52498603 3.27925938 8.08203125 5.8515625 C8.84966797 6.62113281 9.61730469 7.39070312 10.40820312 8.18359375 C11.59833008 9.39208984 11.59833008 9.39208984 12.8125 10.625 C13.59431641 11.40746094 14.37613281 12.18992187 15.18164062 12.99609375 C18.75011366 16.59139741 22.23754107 20.21521159 25.54296875 24.0546875 C29.3102327 28.42869698 33.38338944 32.45703185 37.5 36.5 C42.26857774 41.18327224 46.84975966 45.91966352 51.20898438 50.98632812 C54.47191 54.65489554 57.99848712 58.06112599 61.5 61.5 C68.11304792 67.99474652 74.45403088 74.5579813 80 82 C70.73363258 82.51546526 61.47235827 82.90332303 52.19466209 83.13986778 C47.88316902 83.25356787 43.58163252 83.40683902 39.27587891 83.65966797 C8.76169317 85.40446671 8.76169317 85.40446671 -1.06152344 77.28613281 C-6.79636405 72.16684838 -11.41126642 66.13886125 -16 60 C-20.39899917 54.74475939 -25.05691354 49.80774189 -29.9375 45 C-30.52595703 44.41605469 -31.11441406 43.83210937 -31.72070312 43.23046875 C-33.14479793 41.81795195 -34.5720525 40.4086219 -36 39 C-35.34 37.68 -34.68 36.36 -34 35 C-33.34 35 -32.68 35 -32 35 C-31.74565186 34.41895508 -31.49130371 33.83791016 -31.22924805 33.23925781 C-29.86726505 30.75820358 -28.3568556 29.14481897 -26.33203125 27.171875 C-25.60306641 26.45386719 -24.87410156 25.73585938 -24.12304688 24.99609375 C-23.36056641 24.25488281 -22.59808594 23.51367188 -21.8125 22.75 C-16.86058846 17.91404823 -12.04594814 13.05728061 -7.55712891 7.78417969 C-5.17046492 5.04950732 -2.59730081 2.53395201 0 0 Z " fill="#020202" transform="translate(616,796)"/>
<path d="M0 0 C32.34 0 64.68 0 98 0 C98 14.85 98 29.7 98 45 C65.66 45 33.32 45 0 45 C0 30.15 0 15.3 0 0 Z " fill="#020303" transform="translate(804,762)"/>
<path d="M0 0 C1.65 0 3.3 0 5 0 C5 14.19 5 28.38 5 43 C3.35 43 1.7 43 0 43 C-0.33 42.01 -0.66 41.02 -1 40 C-1.598125 40.495 -2.19625 40.99 -2.8125 41.5 C-7.54277457 43.72601156 -11.86669983 43.91062836 -17 43 C-20.8038345 40.97308997 -23.18209862 38.31575439 -25.4375 34.6875 C-26.56888918 29.28197394 -26.97084976 24.21695891 -24.375 19.1875 C-21.41310188 15.21232095 -18.90038372 12.45822939 -13.82421875 11.65625 C-8.27205332 11.43229711 -6.40690048 12.29654976 -1 15 C-0.67 10.05 -0.34 5.1 0 0 Z " fill="#121212" transform="translate(663,933)"/>
<path d="M0 0 C1.65 0 3.3 0 5 0 C5.33 1.32 5.66 2.64 6 4 C6.639375 3.34 7.27875 2.68 7.9375 2 C12.07346119 -0.70103588 15.19033707 -0.68101422 20 0 C24.64394516 1.51821284 27.44273176 3.8817561 30.0859375 7.90625 C32.32923738 13.04474888 31.64790213 18.25066426 29.75 23.375 C27.23835644 27.14246535 25.34933967 29.55022011 21 31 C19.19127624 31.14359334 17.37667423 31.22046121 15.5625 31.25 C14.61503906 31.27578125 13.66757812 31.3015625 12.69140625 31.328125 C10 31 10 31 6 28 C5.67 32.95 5.34 37.9 5 43 C3.35 43 1.7 43 0 43 C0 28.81 0 14.62 0 0 Z " fill="#141414" transform="translate(533,945)"/>
<path d="M0 0 C3.125 1.5 3.125 1.5 5 3 C5.33 2.01 5.66 1.02 6 0 C7.65 0 9.3 0 11 0 C11 10.23 11 20.46 11 31 C9.35 31 7.7 31 6 31 C6 30.01 6 29.02 6 28 C5.401875 28.495 4.80375 28.99 4.1875 29.5 C-0.5217404 31.71611313 -4.88057016 31.67657663 -10 31 C-14.58573326 28.78902146 -16.73959963 26.4952595 -19 22 C-19.95024842 16.62214481 -20.29797394 11.24103313 -17.5 6.41015625 C-12.11238496 0.20317475 -8.11263314 -0.76414127 0 0 Z " fill="#0D0D0D" transform="translate(939,945)"/>
<path d="M0 0 C5.36787898 1.88869816 8.45991584 4.91983169 11 10 C11.53229587 15.34041106 11.68515143 19.67694896 9.1875 24.5 C8.1046875 25.7375 8.1046875 25.7375 7 27 C6.484375 27.598125 5.96875 28.19625 5.4375 28.8125 C1.82205309 31.79917353 -2.83289138 31.32813655 -7.26953125 31.28125 C-11.11535443 30.88511371 -13.18370077 29.60507679 -16 27 C-19.4944559 22.13814831 -19.66892308 18.10601464 -19.5625 12.24609375 C-18.67668769 7.13421852 -15.96112153 4.19040557 -12 1 C-8.30506957 -0.84746521 -4.04115396 -0.3419438 0 0 Z " fill="#F9F9F9" transform="translate(693,945)"/>
<path d="M0 0 C5.36787898 1.88869816 8.45991584 4.91983169 11 10 C11 12.64 11 15.28 11 18 C2.75 18 -5.5 18 -14 18 C-11.66151858 23.91731018 -11.66151858 23.91731018 -8 26 C-2.2176922 26.65137595 -2.2176922 26.65137595 2.6875 24 C3.450625 23.34 4.21375 22.68 5 22 C7.8125 21.75 7.8125 21.75 10 22 C9.09447999 25.25987205 8.06692589 26.93483532 5.625 29.3125 C0.49554668 31.70034896 -4.4242879 31.83297987 -10 31 C-13.87190591 29.09178276 -16.24846345 27.13781096 -18.2578125 23.21875 C-19.84301364 18.4798329 -19.98781682 13.88097723 -19 9 C-14.11570524 0.82990694 -9.13192712 -0.77270153 0 0 Z " fill="#141414" transform="translate(1029,945)"/>
<path d="M0 0 C3.03227924 2.09371661 4.75048359 3.61887945 6.625 6.8125 C6.955 9.7825 7.285 12.7525 7.625 15.8125 C-0.955 15.8125 -9.535 15.8125 -18.375 15.8125 C-16.05490145 21.07973574 -16.05490145 21.07973574 -12.375 24.8125 C-9.33247498 25.44493498 -6.43386637 25.32591397 -3.375 24.8125 C-0.64280807 22.89390833 -0.64280807 22.89390833 1.625 20.8125 C4.4375 20.5625 4.4375 20.5625 6.625 20.8125 C2.425 28.2125 2.425 28.2125 -2.375 29.8125 C-7.56249192 30.30926139 -11.99304673 30.41553415 -16.8125 28.3125 C-21.03141554 24.19648483 -23.04207645 20.14296484 -23.875 14.3125 C-23.03872235 8.45855645 -21.03843725 4.39672596 -16.75 0.3125 C-11.06000092 -2.21638848 -5.83769862 -2.05400507 0 0 Z " fill="#0F0F0F" transform="translate(908.375,946.1875)"/>
<path d="M0 0 C4.4331235 2.13739883 7.12530646 4.4174158 9 9 C9 11.64 9 14.28 9 17 C0.75 17 -7.5 17 -16 17 C-13.16666667 24.66666667 -13.16666667 24.66666667 -10 26 C-6.96321646 26.35761351 -4.03175905 26.41836102 -1 26 C1.25065102 24.08333079 1.25065102 24.08333079 3 22 C5.75 21.75 5.75 21.75 8 22 C7.45712148 25.80014965 5.88535357 27.53896313 3 30 C-2.21912221 31.7397074 -8.86180017 32.35623752 -14.015625 30.12890625 C-18.32100394 26.81289469 -20.47183582 22.30591651 -21.31640625 17.01953125 C-21.62903928 11.80561902 -20.27144905 8.05085384 -17 4 C-11.96767592 -0.78684486 -6.61137579 -0.97399733 0 0 Z " fill="#0D0D0D" transform="translate(589,945)"/>
<path d="M0 0 C1.65 0 3.3 0 5 0 C5 0.99 5 1.98 5 3 C5.495 2.505 5.99 2.01 6.5 1.5 C9.94000409 -0.56400246 13.12705237 -0.60297388 17 0 C19.75 1.5 19.75 1.5 22 3 C25.87802695 3.44290923 25.87802695 3.44290923 27.6875 1.5 C30.7640505 -0.49560033 33.1164156 -0.65822995 36.7421875 -0.5625 C40.8309734 0.45615946 42.82840886 3.57198827 45 7 C46.25248502 9.50497004 46.11374406 11.20853274 46.09765625 14.0078125 C46.09443359 14.99394531 46.09121094 15.98007812 46.08789062 16.99609375 C46.07532227 18.54490234 46.07532227 18.54490234 46.0625 20.125 C46.05798828 21.16527344 46.05347656 22.20554687 46.04882812 23.27734375 C46.03701952 25.85161962 46.02055075 28.42578146 46 31 C44.35 31 42.7 31 41 31 C40.9906543 30.35450195 40.98130859 29.70900391 40.97167969 29.04394531 C40.91790899 26.11186056 40.8342766 23.18135992 40.75 20.25 C40.73582031 19.23421875 40.72164062 18.2184375 40.70703125 17.171875 C40.60816168 11.39216365 40.60816168 11.39216365 38.140625 6.328125 C35.17938303 4.49085808 33.42121736 4.42979711 30 5 C27.63819449 6.2695265 27.63819449 6.2695265 26 9 C25.35501589 12.74151921 25.30291215 16.45956615 25.25 20.25 C25.20552734 21.796875 25.20552734 21.796875 25.16015625 23.375 C25.08955222 25.91674495 25.03680991 28.45757783 25 31 C23.68 31 22.36 31 21 31 C20.97494385 30.38479492 20.9498877 29.76958984 20.92407227 29.13574219 C20.80781513 26.34029844 20.68522358 23.54516702 20.5625 20.75 C20.52318359 19.78191406 20.48386719 18.81382812 20.44335938 17.81640625 C20.40146484 16.88183594 20.35957031 15.94726562 20.31640625 14.984375 C20.27974854 14.12553711 20.24309082 13.26669922 20.20532227 12.38183594 C20.00859049 10.09965381 19.8172175 8.1429923 19 6 C15.44646071 4.8154869 12.72986522 4.73358106 9 5 C6.64096873 6.65429244 6.07132999 7.59550135 5.56762695 10.4519043 C5.54144287 11.39976807 5.51525879 12.34763184 5.48828125 13.32421875 C5.45283203 14.35224609 5.41738281 15.38027344 5.38085938 16.43945312 C5.35830078 17.51130859 5.33574219 18.58316406 5.3125 19.6875 C5.27833984 20.77095703 5.24417969 21.85441406 5.20898438 22.97070312 C5.1264544 25.6470322 5.05732063 28.32303159 5 31 C3.35 31 1.7 31 0 31 C0 20.77 0 10.54 0 0 Z " fill="#0E0E0E" transform="translate(958,945)"/>
<path d="M0 0 C1.32 0 2.64 0 4 0 C4.33 1.32 4.66 2.64 5 4 C5.495 3.34 5.99 2.68 6.5 2 C9.3669333 -0.29354664 11.252916 -0.57022517 14.89453125 -0.40625 C18.46263874 0.28221601 20.99385159 1.99590106 24 4 C24.845625 3.34 25.69125 2.68 26.5625 2 C30.5265716 -0.30636893 32.4897723 -0.57402898 37 0 C40.70839062 1.6856321 42.87677167 3.54293427 45 7 C45.34057617 9.65722656 45.34057617 9.65722656 45.29296875 12.640625 C45.2784668 14.24550781 45.2784668 14.24550781 45.26367188 15.8828125 C45.23853516 16.99398437 45.21339844 18.10515625 45.1875 19.25 C45.16719727 20.93996094 45.16719727 20.93996094 45.14648438 22.6640625 C45.11115645 25.44319264 45.0618252 28.22135363 45 31 C43.68 31 42.36 31 41 31 C40.9906543 30.35450195 40.98130859 29.70900391 40.97167969 29.04394531 C40.91790899 26.11186056 40.8342766 23.18135992 40.75 20.25 C40.73582031 19.23421875 40.72164062 18.2184375 40.70703125 17.171875 C40.60816168 11.39216365 40.60816168 11.39216365 38.140625 6.328125 C35.17938303 4.49085808 33.42121736 4.42979711 30 5 C27.63819449 6.2695265 27.63819449 6.2695265 26 9 C25.35501589 12.74151921 25.30291215 16.45956615 25.25 20.25 C25.20552734 21.796875 25.20552734 21.796875 25.16015625 23.375 C25.08955222 25.91674495 25.03680991 28.45757783 25 31 C23.35 31 21.7 31 20 31 C19.98598145 29.97845825 19.98598145 29.97845825 19.97167969 28.9362793 C19.91801869 25.85261353 19.83436449 22.77047206 19.75 19.6875 C19.73582031 18.61564453 19.72164062 17.54378906 19.70703125 16.43945312 C19.67480469 15.41142578 19.64257812 14.38339844 19.609375 13.32421875 C19.58842773 12.37635498 19.56748047 11.42849121 19.54589844 10.4519043 C19.20644106 7.87187543 19.20644106 7.87187543 17.14941406 6.19848633 C14.16811861 4.53615337 12.35908188 4.44015302 9 5 C5.49355373 8.03934668 4.71654707 10.6167376 4.390625 15.08203125 C4.32454927 16.99161973 4.27822801 18.90197721 4.25 20.8125 C4.22035156 21.79154297 4.19070313 22.77058594 4.16015625 23.77929688 C4.08970798 26.18627953 4.03688975 28.5923079 4 31 C2.68 31 1.36 31 0 31 C0 20.77 0 10.54 0 0 Z " fill="#090909" transform="translate(812,945)"/>
<path d="M0 0 C9.57 0 19.14 0 29 0 C29 1.65 29 3.3 29 5 C21.08 5 13.16 5 5 5 C5 9.62 5 14.24 5 19 C12.26 19 19.52 19 27 19 C27 20.65 27 22.3 27 24 C19.74 24 12.48 24 5 24 C5 29.61 5 35.22 5 41 C3.35 41 1.7 41 0 41 C0 27.47 0 13.94 0 0 Z " fill="#1A1A1A" transform="translate(752,935)"/>
<path d="M0 0 C4.14613048 1.79037453 6.20962547 3.85386952 8 8 C8.55438343 12.3558698 8.30805175 14.43700886 6.1875 18.3125 C3.99560236 21.00540282 2.3975158 22.72782464 -1.0859375 23.40625 C-7.14486734 23.6543973 -7.14486734 23.6543973 -9.6640625 21.7265625 C-13.53273629 17.08867871 -14.49859799 13.9831759 -14 8 C-10.41550946 1.44903454 -7.50818631 -0.64725744 0 0 Z " fill="#F7F7F7" transform="translate(938,949)"/>
<path d="M0 0 C3.38984068 0.91144888 5.04195573 2.84144385 7.12109375 5.5703125 C8.96972063 9.26756625 8.59696469 13.53492692 8.12109375 17.5703125 C6.32462521 20.50454445 5.17698665 22.04236605 2.12109375 23.5703125 C-0.93811199 23.99102842 -3.82568085 24.05545367 -6.87890625 23.5703125 C-10.0884102 21.02945521 -12.52143119 18.79208788 -13.1875 14.65234375 C-13.44064908 10.19538577 -13.1426359 7.16417307 -10.44140625 3.5078125 C-7.23441077 0.24762041 -4.4948913 -0.34867622 0 0 Z " fill="#F9F9F9" transform="translate(654.87890625,948.4296875)"/>
<path d="M0 0 C3.71943619 0.66418503 6.30444084 1.61848611 9.5 3.625 C12.33271251 7.87406877 12.15087229 11.63497911 11.5 16.625 C10.18078151 19.73636437 8.59655969 22.07672016 5.5 23.625 C2.44059163 24.04574378 -0.4459708 24.10499423 -3.5 23.625 C-6.78175318 21.09531526 -8.19243777 19.54768669 -9.5 15.625 C-10.08853813 10.58038748 -10.07243021 7.72708953 -6.9375 3.625 C-4.45076008 1.06219509 -3.67040751 0.65542991 0 0 Z " fill="#F9F9F9" transform="translate(547.5,948.375)"/>
<path d="M0 0 C5.36787898 1.88869816 8.45991584 4.91983169 11 10 C11.53229587 15.34041106 11.68515143 19.67694896 9.1875 24.5 C8.1046875 25.7375 8.1046875 25.7375 7 27 C6.484375 27.598125 5.96875 28.19625 5.4375 28.8125 C1.82205309 31.79917353 -2.83289138 31.32813655 -7.26953125 31.28125 C-11.11535443 30.88511371 -13.18370077 29.60507679 -16 27 C-19.4944559 22.13814831 -19.66892308 18.10601464 -19.5625 12.24609375 C-18.67668769 7.13421852 -15.96112153 4.19040557 -12 1 C-8.30506957 -0.84746521 -4.04115396 -0.3419438 0 0 Z M-13 8 C-15.52481154 11.48664451 -15.43474022 14.79751118 -15 19 C-13.24505919 22.10039543 -11.51174333 24.48825667 -9 27 C-4.43077852 27.77200992 -0.94980781 27.59362988 3 25.125 C6.64356272 21.25371461 6.38635747 17.85393704 6.359375 12.70703125 C6.18930065 9.71386719 6.18930065 9.71386719 3.625 6.875 C-2.33125779 2.62053015 -7.73320862 2.58272886 -13 8 Z " fill="#0E0E0E" transform="translate(693,945)"/>
<path d="M0 0 C1.65 0 3.3 0 5 0 C5.33 0.99 5.66 1.98 6 3 C6.55816406 2.51402344 7.11632812 2.02804687 7.69140625 1.52734375 C11.55034291 -1.02569218 15.53134954 -0.66631417 20 0 C23.39488422 2.05107588 24.80323081 3.70484621 27 7 C27.22705078 9.54370117 27.22705078 9.54370117 27.1953125 12.54296875 C27.18886719 13.61611328 27.18242188 14.68925781 27.17578125 15.79492188 C27.15902344 16.91447266 27.14226563 18.03402344 27.125 19.1875 C27.11597656 20.31865234 27.10695313 21.44980469 27.09765625 22.61523438 C27.07406862 25.41036828 27.041153 28.20507845 27 31 C25.68 31 24.36 31 23 31 C22.99589111 30.39003174 22.99178223 29.78006348 22.98754883 29.15161133 C22.95452425 26.37094208 22.88387432 23.59243843 22.8125 20.8125 C22.80669922 19.85279297 22.80089844 18.89308594 22.79492188 17.90429688 C22.64819247 13.1926525 22.54133264 10.7302541 19.671875 6.859375 C16.15791019 4.41398429 14.19564512 4.31343989 10 5 C7.61250373 6.26481289 7.61250373 6.26481289 6 9 C5.35753095 12.74206688 5.3029145 16.45939796 5.25 20.25 C5.22035156 21.28125 5.19070313 22.3125 5.16015625 23.375 C5.08955222 25.91674495 5.03680991 28.45757783 5 31 C3.35 31 1.7 31 0 31 C0 20.77 0 10.54 0 0 Z " fill="#0F0F0F" transform="translate(604,945)"/>
<path d="M0 0 C10.89 0 21.78 0 33 0 C33 1.65 33 3.3 33 5 C28.38 5 23.76 5 19 5 C19 16.88 19 28.76 19 41 C17.35 41 15.7 41 14 41 C14 29.12 14 17.24 14 5 C9.38 5 4.76 5 0 5 C0 3.35 0 1.7 0 0 Z " fill="#1E1E1E" transform="translate(855,935)"/>
<path d="M0 0 C2.765625 -0.30859375 2.765625 -0.30859375 6 0 C8.046875 2.15234375 8.046875 2.15234375 9.75 4.9375 C11.800698 8.58850986 11.800698 8.58850986 15 11 C15.2475 10.29875 15.495 9.5975 15.75 8.875 C17.21168498 5.51312454 18.63901664 2.82006346 21 0 C24.25 -0.375 24.25 -0.375 27 0 C25.04238598 4.29283886 22.20747608 7.82343826 19.36328125 11.5625 C17.84143692 13.81465998 17.84143692 13.81465998 18.0078125 15.92578125 C19.46617839 18.97456979 21.48228134 21.54660985 23.5625 24.1875 C28 29.89093323 28 29.89093323 28 31 C25.2421875 31.3046875 25.2421875 31.3046875 22 31 C19.8828125 28.8828125 19.8828125 28.8828125 18.125 26.125 C17.52945313 25.22007812 16.93390625 24.31515625 16.3203125 23.3828125 C15 21 15 21 15 19 C11.61356442 22.12594053 9.17132068 25.55742693 6.66015625 29.390625 C5 31 5 31 2.30859375 31.234375 C1.16583984 31.11835937 1.16583984 31.11835937 0 31 C1.62184501 27.41486894 3.79256239 24.41007677 6.125 21.25 C6.84945313 20.26515625 7.57390625 19.2803125 8.3203125 18.265625 C8.87460937 17.51796875 9.42890625 16.7703125 10 16 C8.38598013 12.42367176 6.21448696 9.45277909 3.875 6.3125 C0 1.10676157 0 1.10676157 0 0 Z " fill="#101010" transform="translate(501,945)"/>
<path d="M0 0 C1.65 0 3.3 0 5 0 C5 14.19 5 28.38 5 43 C3.35 43 1.7 43 0 43 C0 28.81 0 14.62 0 0 Z " fill="#151515" transform="translate(799,933)"/>
<path d="M0 0 C1.32 0 2.64 0 4 0 C4 3.63 4 7.26 4 11 C6.31 11 8.62 11 11 11 C11 12.32 11 13.64 11 15 C8.69 15 6.38 15 4 15 C4 23.91 4 32.82 4 42 C2.68 42 1.36 42 0 42 C0 33.09 0 24.18 0 15 C-1.98 15 -3.96 15 -6 15 C-6 14.01 -6 13.02 -6 12 C-4.02 12 -2.04 12 0 12 C0 8.04 0 4.08 0 0 Z " fill="#030303" transform="translate(1049,934)"/>
<path d="M0 0 C1.65 0 3.3 0 5 0 C5 13.53 5 27.06 5 41 C3.35 41 1.7 41 0 41 C0 27.47 0 13.94 0 0 Z " fill="#171717" transform="translate(724,935)"/>
<path d="M0 0 C1.65 0 3.3 0 5 0 C5 10.23 5 20.46 5 31 C3.35 31 1.7 31 0 31 C0 20.77 0 10.54 0 0 Z " fill="#1C1C1C" transform="translate(786,945)"/>
<path d="M0 0 C2.9375 1.6875 2.9375 1.6875 5 4 C5.33 5.65 5.66 7.3 6 9 C-0.6 9 -7.2 9 -14 9 C-13 4 -13 4 -10.9375 1.6875 C-7.14361659 -0.49196494 -4.27950651 -0.8559013 0 0 Z " fill="#F7F7F7" transform="translate(1029,949)"/>
<path d="M0 0 C3.78533014 2.89940181 4.83377246 4.33508985 6 9 C-0.93 9 -7.86 9 -15 9 C-12.08164218 1.70410545 -7.94586739 -1.87811411 0 0 Z " fill="#F6F6F6" transform="translate(905,949)"/>
<path d="M0 0 C4.64196288 0.66313755 7.22197787 2.22197787 10.5 5.5 C10.5 6.82 10.5 8.14 10.5 9.5 C3.9 9.5 -2.7 9.5 -9.5 9.5 C-8.09464287 3.87857147 -5.92270488 0.8461007 0 0 Z " fill="#F8F8F8" transform="translate(582.5,948.5)"/>
<path d="M0 0 C1.65 0 3.3 0 5 0 C5 1.98 5 3.96 5 6 C3.35 6 1.7 6 0 6 C0 4.02 0 2.04 0 0 Z " fill="#131313" transform="translate(786,934)"/>
</svg>
